<svg xmlns="http://www.w3.org/2000/svg" viewBox="81 80 350 350" width="100%" height="100%">
  <defs>
    <linearGradient id="bgGrad" x1="0%" y1="0%" x2="100%" y2="100%">
      <stop offset="0%" stop-color="#1e1e2e" />
      <stop offset="100%" stop-color="#0f0f15" />
    </linearGradient>

    <linearGradient id="leftFace" x1="0%" y1="0%" x2="100%" y2="100%">
      <stop offset="0%" stop-color="#3b82f6" />
      <stop offset="100%" stop-color="#1d4ed8" />
    </linearGradient>

    <linearGradient id="rightFace" x1="0%" y1="0%" x2="100%" y2="100%">
      <stop offset="0%" stop-color="#06b6d4" />
      <stop offset="100%" stop-color="#0e7490" />
    </linearGradient>

    <linearGradient id="accentGlow" x1="0%" y1="100%" x2="100%" y2="0%">
      <stop offset="0%" stop-color="#a855f7" />
      <stop offset="100%" stop-color="#6366f1" />
    </linearGradient>
    
    <filter id="dropShadow" x="-10%" y="-10%" width="120%" height="120%">
      <feDropShadow dx="0" dy="12" stdDeviation="10" flood-color="#000000" flood-opacity="0.55"/>
    </filter>
  </defs>

  <rect x="81" y="80" width="350" height="350" rx="72" fill="url(#bgGrad)" />

  <g filter="url(#dropShadow)" transform="translate(0, -3)">
    
    <path d="M 256,120 
             L 120,180 
             L 120,340 
             L 256,400 
             L 256,280 
             L 170,240 
             L 170,200 
             L 256,160 Z" 
          fill="url(#leftFace)" />

    <path d="M 256,120 
             L 392,180 
             L 392,340 
             L 256,400 
             L 256,280 
             L 342,240 
             L 342,200 
             L 256,160 Z" 
          fill="url(#rightFace)" />

    <path d="M 236,150 
             L 276,150 
             L 276,370 
             L 236,370 Z" 
          fill="url(#accentGlow)" opacity="0.9" />
          
    <path d="M 200,150 
             L 312,150 
             L 312,185 
             L 200,185 Z" 
          fill="url(#accentGlow)" opacity="0.9" />

    <circle cx="170" cy="200" r="6" fill="#67e8f9" />
    <circle cx="342" cy="200" r="6" fill="#67e8f9" />
    <circle cx="256" cy="400" r="8" fill="#a855f7" />
  </g>
</svg>
